<?xml version="1.0" standalone="no"?>
<!DOCTYPE svg PUBLIC "-//W3C//DTD SVG 20010904//EN"
 "http://www.w3.org/TR/2001/REC-SVG-20010904/DTD/svg10.dtd">
<svg version="1.0" xmlns="http://www.w3.org/2000/svg"
 width="256.000000pt" height="256.000000pt" viewBox="0 0 256.000000 256.000000"
 preserveAspectRatio="xMidYMid meet">

<g transform="translate(0.000000,256.000000) scale(0.100000,-0.100000)"
fill="#000000" stroke="none">
<path d="M1105 2519 c-415 -64 -757 -313 -944 -687 -81 -160 -121 -343 -121
-547 0 -334 124 -636 356 -871 235 -236 542 -364 879 -364 215 0 370 36 560
130 547 271 814 916 620 1497 -143 427 -483 729 -930 829 -84 18 -336 27 -420
13z m340 -100 c63 -10 75 -14 70 -27 -50 -130 -111 -299 -128 -353 l-22 -69
-45 0 c-25 0 -51 4 -59 9 -19 13 -121 434 -107 443 17 12 206 9 291 -3z m-350
-224 c26 -110 50 -205 52 -211 2 -7 -16 -16 -43 -23 -58 -15 -44 -28 -203 189
l-121 165 52 24 c66 31 201 71 209 62 4 -3 28 -96 54 -206z m725 98 c36 -19
67 -37 69 -39 3 -2 -107 -123 -304 -332 l-21 -23 -50 22 c-27 12 -50 22 -51
24 -6 4 134 397 153 426 7 11 122 -32 204 -78z m-1023 -166 c56 -78 115 -160
132 -183 l31 -41 -45 -32 c-73 -53 -141 -128 -160 -177 -17 -45 -18 -46 -54
-38 -53 11 -114 12 -132 3 -23 -12 -28 -27 -53 -174 -22 -132 -21 -185 7 -202
6 -4 50 -10 97 -13 l85 -5 3 -30 c10 -110 86 -394 128 -477 40 -80 88 -88 201
-34 l71 34 11 -25 c21 -46 41 -147 41 -209 0 -82 -49 -182 -135 -272 l-62 -66
-64 23 c-332 121 -582 373 -702 708 -64 177 -78 420 -37 608 52 234 158 425
328 587 68 64 187 157 202 157 3 0 51 -64 107 -142z m1281 -25 c138 -137 143
-118 -56 -215 -93 -46 -194 -91 -225 -102 l-56 -19 -41 43 -41 42 21 27 c40
50 292 312 301 312 4 0 48 -40 97 -88z m-673 -248 c34 -9 97 -34 140 -58 146
-77 162 -135 150 -538 l-7 -257 -57 25 c-76 34 -144 80 -219 150 -61 56 -63
60 -53 87 15 40 14 113 -3 145 -32 61 -96 102 -160 102 -18 0 -108 26 -199 58
l-166 58 27 47 c48 83 180 175 282 197 57 12 186 4 265 -16z m888 -42 c137
-260 164 -598 71 -878 -29 -86 -100 -235 -131 -273 l-19 -23 -28 40 c-62 91
-192 194 -312 249 -29 13 -55 32 -58 41 -15 55 -20 145 -21 382 -1 146 -4 279
-9 295 -7 30 -7 30 67 58 41 15 144 61 228 102 85 41 159 74 165 75 6 0 28
-31 47 -68z m-1548 -269 c50 -12 294 -91 303 -98 2 -2 -19 -96 -24 -103 -3 -4
-417 29 -423 34 -3 3 11 98 25 166 6 31 -2 31 119 1z m502 -155 c38 -35 27
-124 -17 -148 -51 -28 -100 21 -100 99 0 34 5 43 28 55 38 21 62 20 89 -6z
m-294 -144 c94 -7 99 -8 112 -35 17 -32 60 -65 97 -74 23 -6 28 -15 43 -82
l17 -75 -38 -32 c-116 -97 -223 -162 -249 -152 -7 2 -23 31 -35 63 -26 69 -90
336 -90 377 0 24 3 27 23 23 12 -3 66 -9 120 -13z m662 -480 c106 -79 216
-170 245 -201 54 -58 110 -147 110 -173 0 -8 -28 -33 -61 -54 l-62 -40 -31 39
c-17 22 -73 87 -125 145 -216 243 -322 392 -371 525 -9 24 0 18 46 -33 32 -36
140 -126 249 -208z m100 121 c66 -26 150 -64 187 -86 84 -49 176 -134 219
-200 l32 -50 -49 -50 -48 -49 -30 55 c-48 91 -140 181 -326 319 -215 161 -217
163 -155 133 28 -14 104 -46 170 -72z m-416 -62 c19 -32 52 -81 73 -110 21
-29 38 -56 38 -60 0 -5 -33 -41 -73 -81 l-74 -73 -6 76 c-4 42 -20 116 -36
163 l-29 87 32 27 c17 15 33 27 36 28 3 0 21 -26 39 -57z m256 -335 c129 -148
195 -229 195 -237 0 -12 -175 -69 -265 -87 -85 -16 -291 -22 -363 -9 l-42 7
196 204 c108 112 199 204 203 203 3 0 38 -37 76 -81z"/>
</g>
</svg>
